<!-- Generated by IcoMoon.io -->
<svg version="1.1" xmlns="http://www.w3.org/2000/svg" width="32" height="32" viewBox="0 0 32 32">
<title>6</title>
<path d="M30.947 16.449c-4.65-4.651-9.298-9.303-13.953-13.948-0.59-0.589-1.161-1.192-1.849-1.688-0.716-0.516-1.46-0.816-2.34-0.812-1.562 0.007-3.124 0.002-4.686 0.002 0 0 0 0.001-0 0.002-1.629 0-3.258-0.014-4.887 0.004-1.825 0.020-3.221 1.446-3.223 3.271-0.003 3.228-0.003 6.457 0.003 9.685 0 0.252 0.030 0.508 0.083 0.754 0.191 0.89 0.735 1.596 1.345 2.21 5.009 5.041 10.039 10.062 15.068 15.083 1.326 1.324 3.521 1.315 4.849-0.010 3.216-3.21 6.43-6.422 9.635-9.643 0.254-0.255 0.475-0.563 0.637-0.885 0.678-1.343 0.397-2.948-0.68-4.024zM11.167 14.438c-1.76-0.006-3.197-1.451-3.18-3.199 0.017-1.762 1.45-3.172 3.216-3.165 1.738 0.008 3.165 1.444 3.163 3.184-0.002 1.756-1.439 3.185-3.2 3.179z"></path>
</svg>
