<!-- Generated by IcoMoon.io -->
<svg version="1.1" xmlns="http://www.w3.org/2000/svg" width="32" height="32" viewBox="0 0 32 32">
<title>2</title>
<path d="M24.635 0h-17.27c-1.681 0-3.048 1.366-3.048 3.048v25.905c0 1.681 1.366 3.048 3.048 3.048h17.27c1.681 0 3.048-1.366 3.048-3.048v-25.905c0-1.681-1.366-3.048-3.048-3.048zM10.413 27.936c0 0.279-0.229 0.508-0.508 0.508h-1.524c-0.279 0-0.508-0.229-0.508-0.508v-1.524c0-0.279 0.229-0.508 0.508-0.508h1.524c0.279 0 0.508 0.229 0.508 0.508v1.524zM10.413 23.365c0 0.279-0.229 0.508-0.508 0.508h-1.524c-0.279 0-0.508-0.229-0.508-0.508v-1.524c0-0.279 0.229-0.508 0.508-0.508h1.524c0.279 0 0.508 0.229 0.508 0.508v1.524zM10.413 18.794c0 0.279-0.229 0.508-0.508 0.508h-1.524c-0.279 0-0.508-0.229-0.508-0.508v-1.524c0-0.279 0.229-0.508 0.508-0.508h1.524c0.279 0 0.508 0.229 0.508 0.508v1.524zM10.413 14.222c0 0.279-0.229 0.508-0.508 0.508h-1.524c-0.279 0-0.508-0.229-0.508-0.508v-1.524c0-0.279 0.229-0.508 0.508-0.508h1.524c0.279 0 0.508 0.229 0.508 0.508v1.524zM14.984 27.936c0 0.279-0.229 0.508-0.508 0.508h-1.524c-0.279 0-0.508-0.229-0.508-0.508v-1.524c0-0.279 0.229-0.508 0.508-0.508h1.524c0.279 0 0.508 0.229 0.508 0.508v1.524zM14.984 23.365c0 0.279-0.229 0.508-0.508 0.508h-1.524c-0.279 0-0.508-0.229-0.508-0.508v-1.524c0-0.279 0.229-0.508 0.508-0.508h1.524c0.279 0 0.508 0.229 0.508 0.508v1.524zM14.984 18.794c0 0.279-0.229 0.508-0.508 0.508h-1.524c-0.279 0-0.508-0.229-0.508-0.508v-1.524c0-0.279 0.229-0.508 0.508-0.508h1.524c0.279 0 0.508 0.229 0.508 0.508v1.524zM14.984 14.222c0 0.279-0.229 0.508-0.508 0.508h-1.524c-0.279 0-0.508-0.229-0.508-0.508v-1.524c0-0.279 0.229-0.508 0.508-0.508h1.524c0.279 0 0.508 0.229 0.508 0.508v1.524zM19.555 27.936c0 0.279-0.229 0.508-0.508 0.508h-1.524c-0.279 0-0.508-0.229-0.508-0.508v-1.524c0-0.279 0.229-0.508 0.508-0.508h1.524c0.279 0 0.508 0.229 0.508 0.508v1.524zM19.555 23.365c0 0.279-0.229 0.508-0.508 0.508h-1.524c-0.279 0-0.508-0.229-0.508-0.508v-1.524c0-0.279 0.229-0.508 0.508-0.508h1.524c0.279 0 0.508 0.229 0.508 0.508v1.524zM19.555 18.794c0 0.279-0.229 0.508-0.508 0.508h-1.524c-0.279 0-0.508-0.229-0.508-0.508v-1.524c0-0.279 0.229-0.508 0.508-0.508h1.524c0.279 0 0.508 0.229 0.508 0.508v1.524zM19.555 14.222c0 0.279-0.229 0.508-0.508 0.508h-1.524c-0.279 0-0.508-0.229-0.508-0.508v-1.524c0-0.279 0.229-0.508 0.508-0.508h1.524c0.279 0 0.508 0.229 0.508 0.508v1.524zM24.127 27.936c0 0.279-0.229 0.508-0.508 0.508h-1.524c-0.279 0-0.508-0.229-0.508-0.508v-6.095c0-0.279 0.229-0.508 0.508-0.508h1.524c0.279 0 0.508 0.229 0.508 0.508v6.095zM24.127 18.794c0 0.279-0.229 0.508-0.508 0.508h-1.524c-0.279 0-0.508-0.229-0.508-0.508v-1.524c0-0.279 0.229-0.508 0.508-0.508h1.524c0.279 0 0.508 0.229 0.508 0.508v1.524zM24.127 14.222c0 0.279-0.229 0.508-0.508 0.508h-1.524c-0.279 0-0.508-0.229-0.508-0.508v-1.524c0-0.279 0.229-0.508 0.508-0.508h1.524c0.279 0 0.508 0.229 0.508 0.508v1.524zM25.143 7.619c0 0.559-0.457 1.016-1.016 1.016h-16.254c-0.559 0-1.016-0.457-1.016-1.016v-3.556c0-0.559 0.457-1.016 1.016-1.016h16.254c0.559 0 1.016 0.457 1.016 1.016v3.556z"></path>
</svg>
