<!-- Generated by IcoMoon.io -->
<svg version="1.1" xmlns="http://www.w3.org/2000/svg" width="32" height="32" viewBox="0 0 32 32">
<title>-</title>
<path d="M13.050 27.787c1.163 0 2.105 0.942 2.105 2.105s-0.942 2.105-2.105 2.105-2.105-0.942-2.105-2.105 0.942-2.105 2.105-2.105z"></path>
<path d="M23.995 27.787c1.163 0 2.105 0.942 2.105 2.105s-0.942 2.105-2.105 2.105-2.105-0.942-2.105-2.105 0.942-2.105 2.105-2.105z"></path>
<path d="M26.52 26.103h-15.154c-1.556 0-2.948-1.205-3.171-2.744l-3.101-20.235c-0.001-0.004-0.001-0.008-0.002-0.013-0.043-0.299-0.369-0.582-0.671-0.582h-3.158c-0.697 0-1.263-0.565-1.263-1.263s0.565-1.263 1.263-1.263h3.158c1.556 0 2.947 1.205 3.171 2.744l3.101 20.235c0.001 0.004 0.001 0.008 0.002 0.013 0.043 0.299 0.369 0.582 0.672 0.582h15.154c0.697 0 1.263 0.565 1.263 1.263s-0.565 1.263-1.263 1.263z"></path>
<path d="M13.013 21.042c-0.663 0-1.22-0.517-1.26-1.188-0.041-0.696 0.489-1.294 1.186-1.336l11.799-0.701c0.001-0 0.003-0 0.004-0 0.855-0.048 1.918-0.818 2.268-1.632l2.344-8.699c0.012-0.044 0.026-0.088 0.043-0.13 0.097-0.249 0.093-0.431 0.045-0.5-0.043-0.063-0.195-0.126-0.439-0.126h-17.647c-0.697 0-1.263-0.565-1.263-1.263s0.565-1.263 1.263-1.263h17.647c1.071 0 1.992 0.447 2.524 1.227 0.526 0.77 0.616 1.777 0.249 2.773l-2.348 8.714c-0.012 0.044-0.026 0.088-0.043 0.13-0.331 0.848-0.971 1.651-1.804 2.261-0.836 0.613-1.793 0.978-2.697 1.029l-11.797 0.701c-0.025 0.001-0.051 0.002-0.076 0.002z"></path>
</svg>
