<!-- Generated by IcoMoon.io -->
<svg version="1.1" xmlns="http://www.w3.org/2000/svg" width="32" height="32" viewBox="0 0 32 32">
<title>dashboard</title>
<path d="M6.858 19.429c0-0.63-0.224-1.17-0.67-1.616s-0.984-0.67-1.614-0.67c-0.63 0-1.17 0.224-1.616 0.67s-0.67 0.984-0.67 1.616c0 0.63 0.224 1.17 0.67 1.616s0.986 0.67 1.616 0.67c0.63 0 1.17-0.224 1.616-0.67s0.668-0.986 0.668-1.616v0zM10.288 11.429c0-0.63-0.224-1.17-0.67-1.616s-0.986-0.67-1.616-0.67c-0.63 0-1.17 0.224-1.616 0.67s-0.67 0.986-0.67 1.616c0 0.63 0.224 1.17 0.67 1.616s0.984 0.67 1.616 0.67c0.63 0 1.17-0.224 1.616-0.67s0.67-0.984 0.67-1.616v0zM17.93 20.019l1.804-6.82c0.072-0.31 0.026-0.598-0.136-0.866-0.16-0.27-0.39-0.444-0.688-0.526-0.296-0.082-0.582-0.044-0.856 0.116s-0.452 0.396-0.536 0.706l-1.804 6.82c-0.714 0.060-1.35 0.318-1.91 0.778-0.56 0.458-0.934 1.046-1.124 1.76-0.238 0.918-0.118 1.786 0.356 2.608 0.476 0.822 1.172 1.35 2.088 1.588 0.918 0.238 1.786 0.118 2.608-0.356 0.822-0.476 1.35-1.172 1.588-2.088 0.19-0.714 0.154-1.41-0.108-2.088s-0.692-1.22-1.286-1.626l0.004-0.006zM29.714 19.429c0-0.63-0.224-1.17-0.67-1.616s-0.986-0.67-1.616-0.67c-0.63 0-1.17 0.224-1.616 0.67s-0.67 0.986-0.67 1.616c0 0.63 0.224 1.17 0.67 1.616s0.986 0.67 1.616 0.67c0.63 0 1.17-0.224 1.616-0.67 0.448-0.446 0.67-0.986 0.67-1.616v0zM18.286 8.001c0-0.63-0.224-1.17-0.67-1.616s-0.984-0.67-1.614-0.67c-0.63 0-1.17 0.224-1.616 0.67-0.448 0.446-0.67 0.986-0.67 1.616s0.222 1.17 0.67 1.616c0.446 0.446 0.986 0.67 1.616 0.67s1.17-0.224 1.616-0.67c0.446-0.446 0.668-0.986 0.668-1.616v0zM26.286 11.429c0-0.63-0.224-1.17-0.67-1.616s-0.984-0.67-1.616-0.67c-0.63 0-1.17 0.224-1.616 0.67s-0.67 0.986-0.67 1.616c0 0.63 0.224 1.17 0.67 1.616 0.448 0.446 0.986 0.67 1.616 0.67s1.17-0.224 1.616-0.67c0.446-0.446 0.67-0.984 0.67-1.616v0zM32 19.429c0 3.106-0.84 5.982-2.518 8.624-0.226 0.346-0.548 0.518-0.964 0.518h-25.034c-0.416 0-0.738-0.172-0.964-0.518-1.68-2.632-2.52-5.506-2.52-8.624 0-2.166 0.422-4.238 1.268-6.214s1.982-3.678 3.41-5.106c1.428-1.428 3.13-2.564 5.106-3.41s4.048-1.27 6.214-1.27c2.166 0 4.238 0.422 6.214 1.268s3.678 1.982 5.106 3.41c1.428 1.428 2.564 3.13 3.41 5.106s1.268 4.048 1.268 6.214h0.004v0.002z"></path>
</svg>
