<!-- Generated by IcoMoon.io -->
<svg version="1.1" xmlns="http://www.w3.org/2000/svg" width="32" height="32" viewBox="0 0 32 32">
<title>7</title>
<path d="M8.291 16c-0.291 0.291-0.291 0.727 0 1.018l7.2 7.2c0.291 0.291 0.727 0.291 1.018 0l7.2-7.2c0.291-0.291 0.291-0.727 0-1.018s-0.727-0.291-1.018 0l-5.964 5.964v-21.236c0-0.436-0.291-0.727-0.727-0.727s-0.727 0.291-0.727 0.727v21.236l-5.964-5.964c-0.291-0.291-0.727-0.291-1.018 0zM29.091 0h-8c-0.436 0-0.727 0.291-0.727 0.727s0.291 0.727 0.727 0.727h8c0.8 0 1.455 0.655 1.455 1.455v26.182c0 0.8-0.655 1.455-1.455 1.455h-26.182c-0.8 0-1.455-0.655-1.455-1.455v-26.182c0-0.8 0.655-1.455 1.455-1.455h8c0.436 0 0.727-0.291 0.727-0.727s-0.291-0.727-0.727-0.727h-8c-1.6 0-2.909 1.309-2.909 2.909v26.182c0 1.6 1.309 2.909 2.909 2.909h26.182c1.6 0 2.909-1.309 2.909-2.909v-26.182c0-1.6-1.309-2.909-2.909-2.909z"></path>
</svg>
