<!-- Generated by IcoMoon.io -->
<svg version="1.1" xmlns="http://www.w3.org/2000/svg" width="32" height="32" viewBox="0 0 32 32">
<title>exit-fullscreen</title>
<path d="M12.444 10.667v-10.667h-3.556v8.889h-8.889v3.556h10.667c0.982 0 1.778-0.796 1.778-1.778v0zM8.889 32h3.556v-10.667c0-0.982-0.796-1.778-1.778-1.778h-10.667v3.556h8.889v8.889zM32 19.555h-10.667c-0.982 0-1.778 0.796-1.778 1.778v0 10.667h3.556v-8.889h8.889v-3.556zM32 8.889h-8.889v-8.889h-3.556v10.667c0 0.982 0.796 1.778 1.778 1.778v0h10.667v-3.556z"></path>
</svg>
