<!-- Generated by IcoMoon.io -->
<svg version="1.1" xmlns="http://www.w3.org/2000/svg" width="32" height="32" viewBox="0 0 32 32">
<title>exit</title>
<path d="M23.024 5.028c-0.768-0.43-1.747-0.156-2.177 0.614-0.432 0.772-0.156 1.747 0.614 2.177 3.54 1.983 5.738 5.729 5.738 9.782 0 6.175-5.024 11.199-11.201 11.199-6.175 0-11.199-5.024-11.199-11.199 0-3.958 2.123-7.663 5.54-9.668 0.762-0.448 1.018-1.427 0.568-2.189-0.446-0.764-1.427-1.020-2.187-0.57-4.392 2.575-7.121 7.337-7.121 12.425 0 7.939 6.461 14.4 14.398 14.4 7.941 0 14.4-6.461 14.4-14.4 0-5.208-2.825-10.026-7.375-12.572z"></path>
<path d="M15.999 0c-0.882 0-1.601 0.716-1.601 1.601v16.001c0 0.882 0.716 1.601 1.601 1.601s1.601-0.718 1.601-1.601v-16.001c0-0.884-0.716-1.601-1.601-1.601z"></path>
</svg>
