<!-- Generated by IcoMoon.io -->
<svg version="1.1" xmlns="http://www.w3.org/2000/svg" width="32" height="32" viewBox="0 0 32 32">
<title>4</title>
<path d="M2.087 2.087h6.61c0.572 0 1.042-0.467 1.042-1.044 0-0.58-0.467-1.043-1.042-1.043h-7.655c-0.286 0-0.546 0.117-0.735 0.306-0.192 0.189-0.307 0.449-0.307 0.736v7.655c0 0.572 0.467 1.042 1.043 1.042 0.58 0 1.043-0.467 1.043-1.042v-6.61zM29.913 2.087h-6.61c-0.573 0-1.042-0.467-1.042-1.044 0-0.58 0.467-1.043 1.042-1.043h7.655c0.286 0 0.546 0.117 0.735 0.306 0.192 0.189 0.307 0.449 0.307 0.736v7.655c0 0.572-0.467 1.042-1.043 1.042-0.58 0-1.044-0.467-1.044-1.042v-6.61zM2.087 29.913h6.61c0.572 0 1.042 0.467 1.042 1.043 0 0.58-0.467 1.043-1.042 1.043h-7.655c-0.286 0-0.546-0.117-0.735-0.306-0.192-0.189-0.307-0.449-0.307-0.736v-7.655c0-0.572 0.467-1.042 1.043-1.042 0.58 0 1.043 0.467 1.043 1.042v6.61zM29.913 29.913h-6.61c-0.573 0-1.042 0.467-1.042 1.043 0 0.58 0.467 1.043 1.042 1.043h7.655c0.286 0 0.546-0.117 0.735-0.306 0.192-0.189 0.307-0.449 0.307-0.736v-7.655c0-0.572-0.467-1.042-1.043-1.042-0.58 0-1.044 0.467-1.044 1.042v6.61z"></path>
</svg>
