<!-- Generated by IcoMoon.io -->
<svg version="1.1" xmlns="http://www.w3.org/2000/svg" width="32" height="32" viewBox="0 0 32 32">
<title>untitled</title>
<path d="M0.334 9.804l16.13 10.065c0.2 0.133 0.333 0.133 0.467 0.133s0.267-0.067 0.4-0.133l14.331-8.398c0.2-0.133 0.333-0.333 0.4-0.6v-0.4l-14.731-10.331c-0.267-0.133-0.533-0.2-0.8-0.067l-16.13 8.398c-0.267 0.133-0.4 0.4-0.4 0.667s0.133 0.533 0.333 0.667zM16.864 1.472l13.264 9.332-13.198 7.732-14.931-9.332 14.864-7.732z"></path>
<path d="M30.995 16.336l-14.064 8.198-15.864-9.865c-0.333-0.2-0.733-0.133-0.933 0.2s-0.133 0.733 0.2 0.933l16.13 10.065c0.2 0.133 0.333 0.133 0.467 0.133s0.267-0.067 0.4-0.133l14.331-8.398c0.333-0.2 0.467-0.6 0.267-0.933s-0.6-0.4-0.933-0.2z"></path>
<path d="M30.995 22.335l-14.064 8.198-15.864-9.865c-0.333-0.2-0.733-0.133-0.933 0.2s-0.133 0.733 0.2 0.933l16.13 10.065c0.2 0.133 0.333 0.133 0.467 0.133s0.267-0.067 0.4-0.133l14.331-8.398c0.333-0.2 0.467-0.6 0.267-0.933s-0.6-0.4-0.933-0.2z"></path>
</svg>
