<!-- Generated by IcoMoon.io -->
<svg version="1.1" xmlns="http://www.w3.org/2000/svg" width="32" height="32" viewBox="0 0 32 32">
<title>3</title>
<path d="M6.998 0.077c3.884 0 7.029 3.114 7.029 6.998v7.029h-7.029c-3.884 0-6.998-3.144-6.998-7.029s3.114-6.998 6.998-6.998v0z"></path>
<path d="M0.185 24.926c0-3.884 3.145-7.030 7.030-7.030h6.998v7.030c0 3.853-3.145 6.998-6.998 6.998-3.885 0-7.030-3.145-7.030-6.998v0z"></path>
<path d="M24.971 0.077c-3.884 0-6.998 3.114-6.998 6.998v7.029h6.998c3.884 0 7.029-3.144 7.029-7.029s-3.145-6.998-7.029-6.998v0z"></path>
<path d="M31.785 24.926c0-3.884-3.114-7.030-6.998-7.030h-7.030v7.030c0 3.853 3.146 6.998 7.030 6.998s6.998-3.145 6.998-6.998v0z"></path>
</svg>
